<svg xmlns="http://www.w3.org/2000/svg" version="1.1" overflow="visible" preserveAspectRatio="xMidYMid meet" viewBox="0 0 1 1">
  <defs>
    <linearGradient id="primary-0"><stop stop-color="#FF0000"/></linearGradient>
    <linearGradient id="primary-1"><stop stop-color="#FFFFFF"/></linearGradient>
  </defs>
  <rect x="-0.5" y="-0.5" width="2" height="2" fill="url(#primary-1)"/>
  <rect x="-0.75" y="-0.5" width="1" height="2" fill="url(#primary-0)"/>
  <rect x="0.75" y="-0.5" width="1" height="2" fill="url(#primary-0)"/>

  <path
    d="M 0.5,0 L 0.41913,0.15082 C 0.409955,0.16721 0.393518,0.16569 0.377081,0.15653 L 0.318547,0.12622 L 0.362173,0.35787 C 0.371347,0.40019 0.341912,0.40019 0.327386,0.38189 L 0.225234,0.26752 L 0.20865,0.3256 C 0.206737,0.33323 0.198328,0.34124 0.185713,0.33933 L 0.056541,0.31217 L 0.090469,0.43553 C 0.097732,0.46298 0.103397,0.47435 0.083136,0.48159 L 0.037095,0.50323 L 0.259457,0.68387 C 0.268259,0.6907 0.272705,0.70299 0.269572,0.71412 L 0.250111,0.778 C 0.326673,0.76917 0.395275,0.75589 0.471876,0.74771 C 0.478639,0.74699 0.489959,0.75815 0.489913,0.76599 L 0.479769,1 H 0.516994 L 0.511134,0.76649 C 0.511087,0.75865 0.521358,0.74699 0.52812,0.74771 C 0.604722,0.75589 0.673323,0.76917 0.749886,0.778 L 0.730424,0.71412 C 0.727291,0.70299 0.731738,0.6907 0.740539,0.68387 L 0.962901,0.50323 L 0.91686,0.48159 C 0.896599,0.47435 0.902265,0.46298 0.909528,0.43553 L 0.943456,0.31217 L 0.814283,0.33933 C 0.801668,0.34124 0.793259,0.33323 0.791347,0.3256 L 0.774763,0.26752 L 0.67261,0.38189 C 0.658084,0.40019 0.628649,0.40019 0.637823,0.35787 L 0.681449,0.12622 L 0.622916,0.15653 C 0.606478,0.16569 0.590041,0.16721 0.580867,0.15082"
    fill="url(#primary-0)"
    transform="translate(0.3,0.3) scale(0.4)"/>

</svg>
